<?xml version="1.0" standalone="no"?>
<!DOCTYPE svg PUBLIC "-//W3C//DTD SVG 20010904//EN"
 "http://www.w3.org/TR/2001/REC-SVG-20010904/DTD/svg10.dtd">
<svg version="1.0" xmlns="http://www.w3.org/2000/svg"
 width="481.000000pt" height="81.000000pt" viewBox="0 0 481.000000 81.000000"
 preserveAspectRatio="xMidYMid meet">

<g transform="translate(0.000000,81.000000) scale(0.100000,-0.100000)"
fill="#000000" stroke="none">
<path d="M3367 738 c-59 -79 -427 -608 -427 -613 0 -3 33 -5 72 -3 l73 3 54
83 54 82 185 -2 186 -3 58 -82 59 -83 115 0 c83 0 113 3 108 11 -4 7 -108 152
-231 323 -195 270 -228 311 -253 314 -22 2 -33 -4 -53 -30z m57 -253 c25 -36
46 -68 46 -70 0 -3 -43 -5 -96 -5 -53 0 -94 4 -92 8 8 21 84 132 90 132 3 0
27 -29 52 -65z"/>
<path d="M100 680 l0 -60 125 0 125 0 0 -250 0 -250 105 0 105 0 0 250 0 250
110 0 110 0 0 60 0 60 -340 0 -340 0 0 -60z"/>
<path d="M830 430 l0 -311 103 3 102 3 -4 145 c-3 121 -1 143 10 133 8 -6 94
-72 193 -147 l179 -136 143 0 c79 0 144 2 144 5 0 2 -73 60 -162 127 l-163
123 98 5 c135 7 137 9 137 182 0 124 -1 130 -25 153 l-24 25 -366 0 -365 0 0
-310z m568 124 c2 -43 -1 -64 -11 -73 -10 -8 -65 -11 -183 -9 l-169 3 -3 73
-3 72 183 -2 183 -3 3 -61z"/>
<path d="M1841 729 c-18 -6 -54 -31 -80 -57 -63 -63 -74 -106 -70 -264 4 -112
6 -127 31 -169 33 -57 87 -95 155 -109 33 -7 144 -10 305 -8 237 3 256 4 294
25 63 34 110 92 124 155 19 86 9 263 -18 315 -26 50 -80 96 -131 112 -47 14
-561 14 -610 0z m526 -133 c27 -24 28 -27 31 -146 6 -204 -1 -210 -248 -210
-245 0 -250 4 -250 200 0 113 1 120 26 149 l26 31 193 0 c190 0 194 0 222 -24z"/>
<path d="M2810 516 l0 -224 -26 -31 c-39 -47 -101 -59 -186 -35 -16 5 -18 -2
-18 -45 l0 -51 43 -1 c133 -5 230 21 297 78 74 63 80 87 80 326 l0 207 -95 0
-95 0 0 -224z"/>
<path d="M3930 430 l0 -310 60 0 60 0 2 185 3 184 298 -184 c175 -109 308
-185 322 -185 l25 0 0 310 0 310 -60 0 -60 0 0 -180 c0 -99 -2 -180 -5 -180
-3 0 -134 81 -291 180 -225 141 -294 180 -320 180 l-34 0 0 -310z"/>
</g>
</svg>
